<svg id="_Resourses_Icons_AddBlack" data-name="_Resourses / Icons / AddBlack" xmlns="http://www.w3.org/2000/svg" xmlns:xlink="http://www.w3.org/1999/xlink" width="24" height="24" viewBox="0 0 24 24">
  <defs>
    <clipPath id="clip-path">
      <path id="Mask" d="M14,8H8v6H6V8H0V6H6V0H8V6h6Z" fill="#fff"/>
    </clipPath>
  </defs>
  <g id="plus">
    <path id="Rectangle" d="M0,0H24V24H0Z" fill="none"/>
    <path id="Mask-2" data-name="Mask" d="M14,8H8v6H6V8H0V6H6V0H8V6h6Z" transform="translate(5 5)" fill="#fff"/>
    <g id="plus-2" data-name="plus" transform="translate(5 5)" clip-path="url(#clip-path)">
      <g id="Color" transform="translate(-5 -5)">
        <path id="Rectangle_4_Copy_11" data-name="Rectangle 4 Copy 11" d="M4,0H20a4,4,0,0,1,4,4V20a4,4,0,0,1-4,4H4a4,4,0,0,1-4-4V4A4,4,0,0,1,4,0Z" fill="#c7ccd1"/>
      </g>
    </g>
  </g>
</svg>
