<svg id="Group_3" data-name="Group 3" xmlns="http://www.w3.org/2000/svg" width="64" height="70" viewBox="0 0 64 70">
  <g id="Shape" fill="none" stroke-miterlimit="10" opacity="0.193">
    <path d="M57.6,12.816A110.8,110.8,0,0,0,48,6.478,110.437,110.437,0,0,0,37.858,1.1a16.112,16.112,0,0,0-11.717,0A110.437,110.437,0,0,0,16,6.478c-5.317,3.144-9.6,6.338-9.6,6.338A17.463,17.463,0,0,0,.542,23.261S0,28.636,0,34.975.542,46.688.542,46.688A17.217,17.217,0,0,0,6.4,57.133s4.234,3.194,9.6,6.389C21.317,66.666,26.142,68.9,26.142,68.9a16.112,16.112,0,0,0,11.717,0A110.438,110.438,0,0,0,48,63.522c5.317-3.194,9.6-6.389,9.6-6.389a17.217,17.217,0,0,0,5.858-10.445S64,41.313,64,34.975s-.542-11.713-.542-11.713A17.217,17.217,0,0,0,57.6,12.816Z" stroke="none"/>
    <path d="M 32.01845550537109 1.999984741210938 C 30.10652923583984 1.999984741210938 28.26502990722656 2.337112426757813 26.96518707275391 2.925384521484375 C 26.91801452636719 2.946701049804688 22.187255859375 5.093544006347656 17.03001403808594 8.192100524902344 L 17.02398681640625 8.195713043212891 L 17.01792907714844 8.199298858642578 C 11.95720672607422 11.19160079956055 7.792644500732422 14.27301406860352 7.602203369140625 14.41440200805664 C 5.232273101806641 16.21773529052734 2.865161895751953 20.4443473815918 2.530628204345703 23.47042083740234 C 2.506385803222656 23.7163200378418 2 28.936279296875 2 34.97464370727539 C 2 41.01939392089844 2.507457733154297 46.24399566650391 2.530689239501953 46.47941589355469 C 2.692966461181641 47.94611358642578 3.335292816162109 49.77055358886719 4.293815612792969 51.48674011230469 C 5.255413055419922 53.20845794677734 6.458915710449219 54.68220138549805 7.595729827880859 55.53009796142578 L 7.600185394287109 55.53341293334961 L 7.6046142578125 55.53675842285156 C 7.646068572998047 55.56803894042969 11.81055068969727 58.70064544677734 17.02184677124023 61.80301666259766 C 22.12440872192383 64.81975555419922 26.82927322387695 67.01138305664063 26.97793579101563 67.08042907714844 C 28.25047302246094 67.66481781005859 30.07414245605469 68 31.98154449462891 68 C 33.89347076416016 68 35.73497009277344 67.66287231445313 37.03481292724609 67.07461547851563 C 37.08198547363281 67.05329895019531 41.812744140625 64.90645599365234 46.96998596191406 61.80789947509766 C 52.13205718994141 58.70644378662109 56.36231231689453 55.56137084960938 56.40427017211914 55.53009796142578 C 57.54108428955078 54.68220138549805 58.74458694458008 53.20845794677734 59.70618438720703 51.48674011230469 C 60.66482543945313 49.77034378051758 61.30718994140625 47.94568634033203 61.46936798095703 46.47889709472656 C 61.49355316162109 46.23360061645508 62 41.01338195800781 62 34.97464370727539 C 62 28.92989349365234 61.4925422668457 23.70530319213867 61.46931076049805 23.46988296508789 C 61.30703353881836 22.0031852722168 60.66470718383789 20.17874526977539 59.70618438720703 18.46255874633789 C 58.74458694458008 16.74082946777344 57.54108428955078 15.26708602905273 56.40427017211914 14.41921615600586 L 56.39982986450195 14.41588592529297 L 56.3953857421875 14.41254425048828 C 56.35398483276367 14.38130187988281 52.19438552856445 11.25297164916992 46.989013671875 8.203384399414063 L 46.97946929931641 8.197799682617188 L 46.96998596191406 8.192100524902344 C 41.82387161254883 5.100227355957031 37.08184051513672 2.9466552734375 37.03481292724609 2.925384521484375 L 37.02907180786133 2.922782897949219 L 37.02335739135742 2.920173645019531 C 35.75077056884766 2.335372924804688 33.92655944824219 1.999984741210938 32.01845550537109 1.999984741210938 M 32.01846313476563 -7.62939453125e-06 C 34.14153289794922 -7.62939453125e-06 36.25845718383789 0.36761474609375 37.85845947265625 1.102859497070313 C 37.85845947265625 1.102859497070313 42.68307113647461 3.283226013183594 48 6.477729797363281 C 53.36615753173828 9.621513366699219 57.59999847412109 12.81601333618164 57.59999847412109 12.81601333618164 C 60.45538711547852 14.94567108154297 63.06461334228516 19.66135787963867 63.45845794677734 23.26150131225586 C 63.45845794677734 23.26150131225586 64 28.63635635375977 64 34.97464370727539 C 64 41.31292724609375 63.45845794677734 46.68779754638672 63.45845794677734 46.68779754638672 C 63.06461334228516 50.28794097900391 60.45538711547852 55.00361633300781 57.59999847412109 57.13328552246094 C 57.59999847412109 57.13328552246094 53.31691360473633 60.32778549194336 48 63.52227020263672 C 42.68307113647461 66.71677398681641 37.85845947265625 68.89714050292969 37.85845947265625 68.89714050292969 C 36.23384094238281 69.63237762451172 34.1046142578125 70 31.98154067993164 70 C 29.85846328735352 70 27.74154281616211 69.63237762451172 26.14154434204102 68.89714050292969 C 26.14154434204102 68.89714050292969 21.31692886352539 66.66605377197266 16 63.52227020263672 C 10.63384246826172 60.32778549194336 6.400001525878906 57.13328552246094 6.400001525878906 57.13328552246094 C 3.544612884521484 55.00361633300781 0.9353866577148438 50.28794097900391 0.5415420532226563 46.68779754638672 C 0.5415420532226563 46.68779754638672 0 41.31292724609375 0 34.97464370727539 C 0 28.63635635375977 0.5415420532226563 23.26150131225586 0.5415420532226563 23.26150131225586 C 0.9353866577148438 19.66135787963867 3.593841552734375 14.94567108154297 6.400001525878906 12.81601333618164 C 6.400001525878906 12.81601333618164 10.68307113647461 9.621513366699219 16 6.477729797363281 C 21.31692886352539 3.283226013183594 26.14154434204102 1.102859497070313 26.14154434204102 1.102859497070313 C 27.76615524291992 0.36761474609375 29.8953857421875 -7.62939453125e-06 32.01846313476563 -7.62939453125e-06 Z" stroke="none" fill="#fff"/>
  </g>
  <g id="ic_exit_to_app_white_24px" transform="translate(20 23)">
    <g id="Group">
      <path id="Shape-2" data-name="Shape" d="M0,0H24V24H0Z" fill="none"/>
      <path id="Shape-3" data-name="Shape" d="M2,18a2,2,0,0,1-2-2V12H2v4H16V2H2V6H0V2A2,2,0,0,1,2,0H16a2.006,2.006,0,0,1,2,2V16a2.006,2.006,0,0,1-2,2Zm5.09-5.41L9.67,10H0V8H9.67L7.09,5.41,8.5,4l5,5-5,5Z" transform="translate(3 3)" fill="#fff"/>
    </g>
  </g>
</svg>
