<svg id="Icon" xmlns="http://www.w3.org/2000/svg" width="64" height="70" viewBox="0 0 64 70">
  <g id="services">
    <g id="Shape_Copy_4" data-name="Shape Copy 4" fill="#fff" stroke-miterlimit="10">
      <path d="M 31.98154067993164 69.5 C 29.83375930786133 69.5 27.8338794708252 69.12454986572266 26.35030937194824 68.44281005859375 C 26.30337905883789 68.42109680175781 21.48673057556152 66.18560028076172 16.25448036193848 63.09188842773438 C 10.97424030303955 59.94852066040039 6.743269920349121 56.76594161987305 6.701149940490723 56.73416137695313 C 5.379889965057373 55.74869155883789 4.060649871826172 54.14546966552734 2.984230041503906 52.21815872192383 C 1.91389000415802 50.30175018310547 1.222910046577454 48.31837844848633 1.038570046424866 46.63341903686523 C 1.033630013465881 46.58414840698242 0.5 41.2127799987793 0.5 34.97465133666992 C 0.5 28.73650932312012 1.033630013465881 23.36514091491699 1.03901994228363 23.31160926818848 C 1.221529960632324 21.64348030090332 1.918849945068359 19.66049003601074 3.002079963684082 17.73221015930176 C 4.081739902496338 15.81027984619141 5.395830154418945 14.20578956604004 6.702270030975342 13.21430015563965 C 6.741559982299805 13.18502044677734 11.02363967895508 10.00100994110107 16.25448036193848 6.908120155334473 C 21.4860897064209 3.76488995552063 26.29945945739746 1.580180048942566 26.34746932983398 1.558480024337769 C 27.85578918457031 0.8758699893951416 29.86971092224121 0.5 32.01845932006836 0.5 C 34.16624069213867 0.5 36.16611862182617 0.8754500150680542 37.64968872070313 1.55718994140625 C 37.70053863525391 1.580180048942566 42.51390838623047 3.76488995552063 47.74248886108398 6.906320095062256 L 47.74486923217773 6.907750129699707 L 47.74724960327148 6.909150123596191 C 53.02717971801758 10.00240993499756 57.25674057006836 13.18336963653564 57.29885101318359 13.2151403427124 C 58.62010955810547 14.20059967041016 59.93935012817383 15.80381965637207 61.01578140258789 17.73113059997559 C 62.08612060546875 19.64755058288574 62.777099609375 21.63091087341309 62.96142959594727 23.31587028503418 C 62.96636962890625 23.36514091491699 63.5 28.73650932312012 63.5 34.97465133666992 C 63.5 41.2127799987793 62.96636962890625 46.58414840698242 62.96097946166992 46.63768005371094 C 62.777099609375 48.31837844848633 62.08612060546875 50.30173873901367 61.01578140258789 52.21815872192383 C 59.93935012817383 54.14546966552734 58.62010955810547 55.74869155883789 57.30107116699219 56.73249053955078 C 57.25841903686523 56.76428985595703 52.97509002685547 59.94984817504883 47.74248886108398 63.09368896484375 C 42.51110076904297 66.23679351806641 37.70053100585938 68.41982269287109 37.65254974365234 68.44151306152344 C 36.14421081542969 69.12413024902344 34.13029098510742 69.5 31.98154067993164 69.5 Z" stroke="none"/>
      <path d="M 32.01846694946289 1 C 29.96938705444336 1 27.97761154174805 1.369552612304688 26.55343246459961 2.014091491699219 C 26.50566482543945 2.035690307617188 21.71608734130859 4.21002197265625 16.51501083374023 7.334911346435547 L 16.51198959350586 7.336723327636719 L 16.50896835327148 7.338512420654297 C 11.3643798828125 10.38039779663086 7.140316009521484 13.51171493530273 7.001052856445313 13.61524200439453 C 4.401649475097656 15.59017181396484 1.900485992431641 20.05286026000977 1.536117553710938 23.36552810668945 C 1.519207000732422 23.53592300415039 1 28.83430480957031 1 34.97464370727539 C 1 41.11499786376953 1.519207000732422 46.41336822509766 1.536117553710938 46.58376312255859 C 1.904678344726563 49.93483734130859 4.404933929443359 54.39777755737305 6.997867584228516 56.33168792724609 L 7.000087738037109 56.33335494995117 L 7.002300262451172 56.33502197265625 C 7.044200897216797 56.36663436889648 11.25325393676758 59.53273391723633 16.50896835327148 62.6614875793457 C 21.71735382080078 65.74109649658203 26.51348876953125 67.96739196777344 26.55908966064453 67.98848724365234 C 27.95800018310547 68.63132476806641 29.93439865112305 69 31.98153305053711 69 C 34.03058624267578 69 36.02236938476563 68.63044738769531 37.4466438293457 67.98587799072266 C 37.49435424804688 67.96432495117188 42.27831268310547 65.79334259033203 47.48498916625977 62.66508865356445 C 52.69406890869141 59.5353889465332 56.95970153808594 56.36333465576172 57.00213241577148 56.33168792724609 C 59.59505462646484 54.39777755737305 62.09526062011719 49.9353141784668 62.46381759643555 46.58424377441406 C 62.47969055175781 46.42461395263672 63 41.12703704833984 63 34.97464370727539 C 63 28.83468246459961 62.4808464050293 23.53654861450195 62.46387100219727 23.36553192138672 C 62.09531402587891 20.01445770263672 59.59505462646484 15.55150985717773 57.00213241577148 13.61761093139648 L 56.99991226196289 13.61594390869141 L 56.99775695800781 13.61432266235352 C 56.9558219909668 13.58268737792969 52.74394226074219 10.41596603393555 47.49451065063477 7.340557098388672 L 47.48973083496094 7.337757110595703 L 47.48498916625977 7.334911346435547 C 42.28391265869141 4.21002197265625 37.49434661865234 2.035690307617188 37.44657897949219 2.014091491699219 L 37.44371032714844 2.012786865234375 L 37.44091033935547 2.011512756347656 C 36.04202270507813 1.368675231933594 34.06562042236328 1 32.01846694946289 1 M 32.01846313476563 0 C 34.14154052734375 0 36.25846862792969 0.36761474609375 37.85846710205078 1.102851867675781 C 37.85846710205078 1.102851867675781 42.68307495117188 3.283233642578125 48 6.47772216796875 C 53.36615753173828 9.621509552001953 57.59999847412109 12.81600952148438 57.59999847412109 12.81600952148438 C 60.45537948608398 14.9456672668457 63.06460952758789 19.66135406494141 63.45845413208008 23.26150131225586 C 63.45845413208008 23.26150131225586 64 28.63636779785156 64 34.97464370727539 C 64 41.31293487548828 63.45845413208008 46.68778991699219 63.45845413208008 46.68778991699219 C 63.06460952758789 50.28794479370117 60.45537948608398 55.00362396240234 57.59999847412109 57.1332893371582 C 57.59999847412109 57.1332893371582 53.31692123413086 60.32777786254883 48 63.52227783203125 C 42.68307495117188 66.71676635742188 37.85846710205078 68.89714813232422 37.85846710205078 68.89714813232422 C 36.23384857177734 69.63238525390625 34.1046142578125 70 31.98154067993164 70 C 29.85845947265625 70 27.74153900146484 69.63238525390625 26.14154434204102 68.89714813232422 C 26.14154434204102 68.89714813232422 21.31692123413086 66.66605377197266 16 63.52227783203125 C 10.63384628295898 60.32777786254883 6.400001525878906 57.1332893371582 6.400001525878906 57.1332893371582 C 3.544612884521484 55.00362396240234 0.9353790283203125 50.28794479370117 0.541534423828125 46.68778991699219 C 0.541534423828125 46.68778991699219 0 41.31293487548828 0 34.97464370727539 C 0 28.63636779785156 0.541534423828125 23.26150131225586 0.541534423828125 23.26150131225586 C 0.9353790283203125 19.66135406494141 3.593845367431641 14.9456672668457 6.400001525878906 12.81600952148438 C 6.400001525878906 12.81600952148438 10.68307876586914 9.621509552001953 16 6.47772216796875 C 21.31692123413086 3.283233642578125 26.14154434204102 1.102851867675781 26.14154434204102 1.102851867675781 C 27.76615524291992 0.36761474609375 29.8953857421875 0 32.01846313476563 0 Z" stroke="none" fill="#dde1e6"/>
    </g>
    <g id="Miniicon" transform="translate(16 19)">
      <g id="child">
        <path id="Rectangle" d="M0,0H32V32H0Z" fill="none"/>
        <path id="Shape" d="M13.507,30.8a6.673,6.673,0,0,1-4.123-3.1,6.769,6.769,0,0,1-.1-6.667c0-.051.051-.051.051-.1a22.716,22.716,0,0,1-5.548.712H3.735A3.839,3.839,0,0,1,.783,20.413,2.668,2.668,0,0,1,.02,18.275a3.568,3.568,0,0,1,3.664-2.9,24.607,24.607,0,0,0,3.513-.2,7.366,7.366,0,0,0-1.324-2.138c-.305-.255-.61-.458-.967-.713C3.684,11.4,2.259,10.437,1.7,9.113a6.922,6.922,0,0,1-.153-5.141A6.333,6.333,0,0,1,5.008.461a6.227,6.227,0,0,1,5.039.153,6.671,6.671,0,0,1,3.512,3.461c.611,1.426.255,3.156-.1,4.734a7.973,7.973,0,0,0-.306,1.425,6.242,6.242,0,0,0,.561,2.24,27.5,27.5,0,0,0,3-2.7,4.032,4.032,0,0,1,2.8-1.221,2.84,2.84,0,0,1,1.832.611A2.742,2.742,0,0,1,22.364,11.2a3.839,3.839,0,0,1-1.171,2.952,26.458,26.458,0,0,1-4.378,3.512,6.787,6.787,0,0,1,4.937,8.3,6.671,6.671,0,0,1-3.1,4.122,6.853,6.853,0,0,1-3.41.916A6.441,6.441,0,0,1,13.507,30.8Z" transform="translate(4)" fill="#f28230"/>
      </g>
    </g>
  </g>
</svg>
